<?xml version="1.0" encoding="iso-8859-1"?>
<!-- Generator: Adobe Illustrator 19.1.0, SVG Export Plug-In . SVG Version: 6.00 Build 0)  -->
<svg version="1.1" id="Capa_1" xmlns="http://www.w3.org/2000/svg" xmlns:xlink="http://www.w3.org/1999/xlink" x="0px" y="0px"
	 viewBox="0 0 470 470" style="enable-background:new 0 0 470 470;" xml:space="preserve">
<g>
	<path style="fill:#3DE2F3;" d="M152.885,320.616c-28.828,17.343-64.427,34.669-95.407,37.702
		c2.948,6.918,5.714,11.964,7.867,15.427c1.227-0.876,2.725-1.396,4.348-1.396C92.837,372.349,125.461,347.07,152.885,320.616z"/>
	<path style="fill:#3DE2F3;" d="M69.692,97.66c-1.623,0-3.121-0.521-4.348-1.397c-2.155,3.467-4.922,8.516-7.872,15.439
		c30.981,3.032,66.582,20.347,95.414,37.692C125.461,122.94,92.837,97.66,69.692,97.66z"/>
	<path style="fill:#3DE2F3;" d="M400.308,372.34c1.621,0,3.118,0.519,4.344,1.394c2.153-3.463,4.918-8.508,7.865-15.425
		c-30.979-3.034-66.575-20.359-95.401-37.701C344.541,347.061,377.164,372.34,400.308,372.34z"/>
	<path style="fill:#3DE2F3;" d="M317.122,149.376c28.828-17.343,64.423-34.655,95.401-37.685c-2.949-6.92-5.716-11.969-7.87-15.435
		c-1.227,0.875-2.724,1.395-4.346,1.395C377.166,97.651,344.545,122.925,317.122,149.376z"/>
	<path style="fill:#FF3B33;" d="M430.76,126.855c-23.16-3.558-57.171,7.168-98.705,31.179
		c-27.438,15.862-50.253,33.034-57.957,39.007v75.909c7.704,5.973,30.519,23.145,57.957,39.007
		c41.528,24.008,75.527,34.734,98.697,31.181C436.33,332.17,455,291.248,455,234.995C455,178.548,436.349,137.796,430.76,126.855z
		 M360.143,269.568c-1.111,3.041-3.985,4.927-7.045,4.927c-0.854,0-1.725-0.147-2.574-0.458l-46.501-16.999
		c-3.891-1.422-5.891-5.729-4.469-9.619c1.422-3.89,5.729-5.894,9.619-4.469l46.501,16.999
		C359.564,261.371,361.564,265.677,360.143,269.568z M355.674,210.041l-46.501,16.999c-0.85,0.311-1.72,0.458-2.574,0.458
		c-3.061,0-5.934-1.886-7.045-4.927c-1.422-3.891,0.578-8.197,4.469-9.619l46.501-16.999c3.893-1.422,8.197,0.58,9.619,4.469
		C361.564,204.313,359.564,208.619,355.674,210.041z"/>
	<path style="fill:#081C1F;" d="M442.155,116.372c-1.052-1.803-2.807-3.086-4.845-3.542c-7.727-1.726-16.076-1.992-24.788-1.14
		c-30.978,3.03-66.572,20.343-95.401,37.685c27.423-26.451,60.043-51.726,83.185-51.726c1.622,0,3.119-0.52,4.346-1.395
		c1.907-1.36,3.154-3.585,3.154-6.105c0-4.142-3.357-7.5-7.5-7.5c-23.323,0-54.048,18.068-91.322,53.701
		c-22.187,21.211-39.853,42.122-45.965,49.554h-56.05c-6.12-7.442-23.78-28.343-45.956-49.544
		C123.74,100.728,93.016,82.66,69.692,82.66c-4.143,0-7.5,3.358-7.5,7.5c0,2.519,1.246,4.743,3.152,6.103
		c1.227,0.876,2.725,1.397,4.348,1.397c23.145,0,55.769,25.28,83.194,51.734c-28.832-17.345-64.433-34.661-95.414-37.692
		c-8.71-0.852-17.058-0.586-24.783,1.138c-2.038,0.455-3.793,1.738-4.845,3.542C26.708,118.332,0,164.933,0,235.005
		c0,70.072,26.708,116.673,27.845,118.623c1.052,1.803,2.807,3.086,4.845,3.542c4.955,1.106,10.154,1.617,15.552,1.617
		c3.024,0,6.107-0.161,9.237-0.467c30.98-3.034,66.579-20.359,95.407-37.702c-27.425,26.454-60.049,51.733-83.193,51.733
		c-1.623,0-3.121,0.52-4.348,1.396c-1.906,1.36-3.152,3.584-3.152,6.104c0,4.142,3.357,7.5,7.5,7.5
		c23.323,0,54.048-18.068,91.322-53.701c22.176-21.201,39.836-42.102,45.956-49.544h56.066c6.128,7.451,23.782,28.343,45.948,49.534
		c37.274,35.634,67.999,53.702,91.322,53.702c4.143,0,7.5-3.358,7.5-7.5c0-2.521-1.248-4.746-3.156-6.106
		c-1.226-0.874-2.723-1.394-4.344-1.394c-23.144,0-55.767-25.278-83.191-51.732c28.826,17.342,64.422,34.666,95.401,37.701
		c3.132,0.307,6.216,0.468,9.241,0.468c5.394,0,10.601-0.511,15.552-1.617c2.038-0.455,3.793-1.738,4.845-3.542
		c1.137-1.95,27.845-48.551,27.845-118.623C470,164.923,443.292,118.322,442.155,116.372z M332.055,311.956
		c-27.438-15.862-50.253-33.034-57.957-39.007v-75.909c7.704-5.973,30.519-23.144,57.957-39.007
		c41.534-24.011,75.545-34.736,98.705-31.179c5.589,10.94,24.24,51.693,24.24,108.14c0,56.253-18.67,97.175-24.248,108.142
		C407.582,346.69,373.583,335.964,332.055,311.956z M39.24,343.145C33.651,332.204,15,291.452,15,235.005
		c0-56.253,18.67-97.175,24.248-108.142c23.168-3.551,57.169,7.173,98.697,31.181c27.438,15.862,50.253,33.034,57.957,39.007v75.909
		c-7.704,5.973-30.519,23.144-57.957,39.007C96.411,335.977,62.401,346.701,39.24,343.145z M259.098,200.906v68.198h-48.195v-68.198
		H259.098z"/>
	<path style="fill:#081C1F;" d="M355.674,259.949l-46.501-16.999c-3.891-1.425-8.197,0.579-9.619,4.469
		c-1.422,3.891,0.578,8.197,4.469,9.619l46.501,16.999c0.85,0.311,1.72,0.458,2.574,0.458c3.06,0,5.934-1.886,7.045-4.927
		C361.564,265.677,359.564,261.371,355.674,259.949z"/>
	<path style="fill:#081C1F;" d="M350.523,195.953l-46.501,16.999c-3.891,1.422-5.891,5.729-4.469,9.619
		c1.111,3.041,3.984,4.927,7.045,4.927c0.854,0,1.725-0.147,2.574-0.458l46.501-16.999c3.891-1.422,5.891-5.729,4.469-9.619
		C358.721,196.533,354.416,194.531,350.523,195.953z"/>
	<rect x="210.902" y="200.906" style="fill:#3DE2F3;" width="48.195" height="68.198"/>
	<path style="fill:#FF3B33;" d="M195.902,272.959v-75.909c-7.704-5.973-30.519-23.145-57.957-39.007
		c-41.528-24.008-75.529-34.731-98.697-31.181C33.67,137.83,15,178.752,15,235.005c0,56.447,18.651,97.199,24.24,108.14
		c23.161,3.557,57.171-7.168,98.705-31.179C165.384,296.104,188.198,278.932,195.902,272.959z M109.72,200.846
		c1.193-3.967,5.376-6.215,9.343-5.021l56.501,16.999c3.966,1.193,6.214,5.376,5.021,9.343c-0.977,3.246-3.955,5.341-7.179,5.341
		c-0.716,0-1.443-0.103-2.164-0.32l-56.501-16.999C110.774,208.996,108.526,204.813,109.72,200.846z M116.898,274.505
		c-3.224,0-6.202-2.095-7.179-5.341c-1.193-3.966,1.055-8.149,5.021-9.343l56.501-16.998c3.964-1.195,8.148,1.055,9.343,5.021
		c1.193,3.966-1.055,8.149-5.021,9.343l-56.501,16.998C118.342,274.402,117.614,274.505,116.898,274.505z"/>
	<path style="fill:#081C1F;" d="M114.74,210.189l56.501,16.999c0.721,0.217,1.448,0.32,2.164,0.32c3.224,0,6.202-2.095,7.179-5.341
		c1.193-3.966-1.055-8.149-5.021-9.343l-56.501-16.999c-3.967-1.193-8.149,1.054-9.343,5.021
		C108.526,204.813,110.774,208.996,114.74,210.189z"/>
	<path style="fill:#081C1F;" d="M180.584,247.844c-1.194-3.967-5.379-6.216-9.343-5.021l-56.501,16.998
		c-3.966,1.193-6.214,5.376-5.021,9.343c0.977,3.246,3.955,5.341,7.179,5.341c0.716,0,1.443-0.103,2.164-0.32l56.501-16.998
		C179.529,255.993,181.777,251.81,180.584,247.844z"/>
</g>
<g>
</g>
<g>
</g>
<g>
</g>
<g>
</g>
<g>
</g>
<g>
</g>
<g>
</g>
<g>
</g>
<g>
</g>
<g>
</g>
<g>
</g>
<g>
</g>
<g>
</g>
<g>
</g>
<g>
</g>
</svg>
